PathFileType	4	(X/Y/Z)	C:/Users/beibeiliu/ov580/test_trc\sequence.17_training_dense_right.trc
DataRate	CameraRate	NumFrames	NumMarkers	Units	OrigDataRate	OrigDataStartFrame	OrigNumFrames
120	120	12	19	mm	120	76	303
Frame#	Time	ThumbCMC			ThumbMCP			ThumbIP			ThumbTip			IndexMCP			IndexPIP			IndexTip			MiddleMCP			MiddlePIP			MiddleTip			RingMCP			RingPIP			RingTip			PinkyMCP			PinkyPIP			PinkyTip			BackHand1			BackHand2			BackHand3	
		X0	Y0	Z0	X1	Y1	Z1	X2	Y2	Z2	X3	Y3	Z3	X4	Y4	Z4	X5	Y5	Z5	X6	Y6	Z6	X7	Y7	Z7	X8	Y8	Z8	X9	Y9	Z9	X10	Y10	Z10	X11	Y11	Z11	X12	Y12	Z12	X13	Y13	Z13	X14	Y14	Z14	X15	Y15	Z15	X16	Y16	Z16	X17	Y17	Z17	X18	Y18	Z18	
75	0.625	248.312	5.58416	12.1142	224.416	14.8257	8.8828	205.986	20.182	0.144225	191.208	29.8343	-11.0796	206.46	-35.6682	-21.867	180.344	-36.1065	-14.246	171.894	-20.701	8.05609	203.707	-45.9377	-6.8401	183.243	-34.5182	14.8389	210.429	-17.8724	26.5901	203.606	-52.005	17.3564	197.861	-33.1129	31.4966	222.939	-19.2616	36.3319	215.83	-59.8821	29.2148	208.909	-39.3152	41.9072	232.335	-23.3013	37.2391	254.84	-51.8674	12.1689	276.295	-35.2079	26.0301	262.596	-20.8873	-0.63118	
76	0.633333	251.853	4.46752	13.2221	223.23	13.9442	7.10559	206.73	20.429	0.940286	196.384	33.7683	-6.96543	210.028	-34.9472	-19.9892	180.069	-30.7945	-18.2967	168.37	-17.8793	9.03813	200.172	-44.4718	-7.12279	181.023	-32.6993	13.7419	204.36	-15.6629	25.4132	203.936	-48.3041	14.7807	198.135	-26.6563	34.0006	222.183	-16.9281	36.5203	211.671	-55.6066	28.9504	206.419	-34.8497	40.7374	230.99	-20.9837	34.4328	254.56	-49.3495	15.2152	274.703	-42.9036	25.5307	266.034	-23.6417	4.94139	
77	0.641667	253.196	3.52146	12.8497	227.534	12.4021	12.6058	210.439	22.3271	2.86019	198.424	34.9746	-4.65	205.012	-31.0301	-23.0776	179.454	-28.0113	-17.0247	164.199	-16.7899	3.47357	197.684	-43.0032	-4.69796	179.674	-27.0238	9.79208	204.754	-14.1093	27.6318	196.971	-45.8207	20.5473	196.277	-23.2726	30.8851	220.449	-12.7884	35.3165	207.513	-54.0239	35.0628	207.243	-30.0627	44.0881	233.069	-22.6477	38.0201	248.799	-52.2573	16.5112	270.431	-45.5606	29.5468	262.769	-29.5858	7.08716	
78	0.65	256.985	2.6519	15.1001	232.882	16.1182	13.9084	210.882	26.9912	0.886469	197.634	34.691	-5.17313	208.781	-29.804	-17.3046	180.52	-23.8573	-19.5181	161.257	-13.262	-3.06757	199.906	-40.1879	-4.20003	178.279	-25.0491	12.3703	202.195	-8.78759	27.3571	196.317	-41.7894	20.9513	195.725	-18.5843	36.2068	222.374	-12.8537	37.2439	201.588	-46.5633	36.6161	204.25	-26.4029	45.8152	229.289	-18.613	38.5492	247.484	-53.5236	18.4926	272.038	-45.1556	30.8342	261.548	-31.6552	8.44302	
79	0.658333	257.368	0.0776356	16.8954	235.404	16.9119	13.1145	218.903	25.1963	7.84115	203.505	35.5322	-2.43928	205.17	-25.7043	-18.7595	179.296	-21.6333	-16.0794	161.429	-6.04523	-10.5944	197.99	-35.2392	-4.69085	177.911	-17.5837	8.95551	205.931	-2.36708	26.0682	197.168	-37.1709	18.4367	195.33	-12.0777	33.2725	224.072	-12.2418	37.6739	197.214	-42.9261	37.8652	202.57	-20.013	41.1619	230.865	-18.7557	41.9539	244.452	-53.8173	22.6113	266.378	-48.485	33.2157	262.025	-32.2291	12.3753	
80	0.666667	260.226	-2.00432	19.2506	236.349	18.1422	13.9186	220.63	29.1882	7.54957	210.979	43.7351	-0.0589811	204.375	-25.1659	-15.6572	180.808	-14.757	-17.8423	161.892	0.0642553	-10.3494	194.217	-30.9817	-2.4564	177.25	-11.574	11.4969	203.213	1.98605	26.3905	193.653	-33.207	18.845	193.665	-9.53009	32.2062	222.257	-9.51666	38.1553	195.467	-38.4045	34.6209	202.823	-16.3487	45.424	229.487	-21.9372	42.6086	240.333	-52.7941	23.1567	261.636	-50.628	37.1105	259.994	-33.9452	14.5394	
81	0.675	259.262	-3.14183	21.9276	239.577	18.1753	18.1725	225.487	32.2974	9.52843	212.388	42.6227	3.14009	204.819	-17.8985	-17.8384	180.908	-6.03868	-17.5362	164.537	13.2987	-5.99231	188.964	-25.7048	-1.93723	179.17	-3.61862	14.8544	205.531	3.82677	28.1993	188.579	-27.7363	20.1579	194.446	-4.00952	34.2407	220.616	-11.9313	43.3003	191.112	-33.6183	35.918	200.179	-14.8812	48.036	225.821	-19.5326	44.952	235.999	-52.6896	25.6639	256.729	-55.6849	40.5258	254.705	-38.4155	16.9127	
82	0.683333	258.461	-3.24956	22.7878	241.378	17.8448	19.9993	226.454	32.3785	11.033	217.849	47.697	4.12342	201.387	-14.2281	-15.5855	181.609	1.53386	-15.2446	175.26	19.4003	3.27291	190.247	-19.4278	-3.20931	177.572	2.97801	8.50728	206.892	2.95636	30.8799	185.247	-21.787	19.1608	193.524	-1.86963	35.4361	215.706	-9.9421	42.8442	187.889	-32.9739	33.7519	196.404	-13.5738	48.8554	220.783	-19.0659	46.0634	225.523	-53.5206	22.6218	249.257	-56.9094	36.1533	249.067	-37.4619	15.2266	
83	0.691667	255.56	-9.68744	27.9578	243.022	18.3177	22.449	233.488	33.7645	14.8559	225.364	50.8978	7.05239	203.066	-9.14516	-15.1751	184.58	15.1484	-10.1291	192.056	27.446	16.0413	187.706	-16.2525	-3.84468	176.529	6.82366	10.5406	201.82	4.855	31.4485	184.994	-19.682	16.0396	185.827	-1.42703	34.8004	214.377	-9.94686	41.2382	182.173	-25.7746	33.5492	195.254	-10.9237	46.5979	216.53	-20.0284	45.9553	219.431	-54.9191	23.1194	242.015	-60.7561	41.6561	245.469	-40.8891	16.0704	
84	0.7	252.391	-12.6752	30.5338	241.852	13.4771	25.2768	236.4	35.2943	16.2479	230.148	49.6332	11.588	204.581	0.916696	-16.4535	188.59	19.7574	-1.7347	202.11	20.7655	24.5226	189.139	-10.2124	-5.24361	177.746	13.6035	12.2504	199.726	3.51954	34.6373	180.017	-12.2687	13.3716	182.013	1.02398	36.6834	208.407	-9.06294	40.7397	177.417	-27.3768	30.1592	186.617	-10.215	48.5808	210.127	-20.1901	45.051	214.379	-50.201	18.7537	232.02	-61.123	38.5427	237.693	-41.875	17.9191	
85	0.708333	246.646	-15.2069	31.5351	242.73	11.9726	28.7009	235.764	31.6093	19.8768	237.001	50.4127	14.9962	203.394	1.7316	-12.2976	190.055	24.1603	0.74951	203.598	18.3438	28.7307	184.974	-2.71857	-7.36562	174.102	15.8819	9.33633	197.906	6.08537	34.9647	172.947	-10.664	15.4343	180.485	5.63527	32.5217	201.708	-12.0949	44.3194	172.083	-19.1442	30.7337	183.196	-7.79113	47.2413	205.647	-23.7378	42.7036	208.004	-50.565	21.6281	224.019	-61.7909	42.7341	233.249	-45.0728	22.4025	
86	0.716667	242.288	-16.2987	31.6781	242.381	10.1079	31.5172	239.372	32.7918	20.5022	240.333	48.747	18.0011	198.378	6.41325	-14.0728	187.968	26.5596	-2.51048	197.715	21.0611	29.5588	179.759	-1.37547	-6.78203	172.533	22.0567	11.6591	195.073	9.4131	33.6393	168.127	-3.43118	15.2463	180.392	9.71945	34.3873	200.442	-9.3448	39.9857	167.512	-14.8919	30.1449	182.429	-3.73465	45.7752	200.82	-20.1912	44.2896	196.568	-47.2448	20.0962	212.729	-63.5599	38.7783	224.255	-44.0538	17.8297	
